<?xml version="1.0" encoding="UTF-8"?>
<svg version="1.1" xmlns="http://www.w3.org/2000/svg" width="500" height="500">
<path d="M0 0 C-0.92039063 0.58265625 -1.84078125 1.1653125 -2.7890625 1.765625 C-33.06436411 21.23955053 -51.18463959 46.73328375 -59 82 C-61.53129588 93.92201012 -61.19728332 105.8780363 -61 118 C-57.7 119.32 -54.4 120.64 -51 122 C-51 107.81 -51 93.62 -51 79 C-37.47 78.67 -23.94 78.34 -10 78 C-13.465 71.07 -13.465 71.07 -17 64 C-18.01886149 59.92455403 -18.18370739 56.22299471 -18.1875 52.0625 C-18.19974609 51.35931641 -18.21199219 50.65613281 -18.22460938 49.93164062 C-18.23630238 45.77282703 -17.64977218 42.78217527 -16 39 C-6.54086243 40.38804738 2.86239556 42.00413639 12.25 43.8125 C12.92842957 43.94316864 13.60685913 44.07383728 14.30584717 44.20846558 C24.7352025 46.23256874 34.94141566 48.5462163 45 52 C46.12535156 52.37640625 47.25070312 52.7528125 48.41015625 53.140625 C70.98034589 61.21101462 89.55874576 76.22800827 100 98 C101.86569149 102.25926393 103.48170084 106.60569186 105 111 C106.45715 91.89514449 98.49879007 74.81659254 86.34423828 60.51660156 C78.75794603 51.95756642 69.77557945 45.74121333 60 40 C59.4229834 39.65727051 58.8459668 39.31454102 58.25146484 38.96142578 C38.9625839 27.65228396 17.68766422 21.73660627 -4 17 C2.03462978 9.75844427 10.97288552 7.50938906 20 6 C48.38359375 3.49695922 73.67232327 12.94026816 95.75 30.375 C121.29603715 52.24424619 138.3802266 81.93790951 145 115 C145.21140625 115.98355469 145.4228125 116.96710938 145.640625 117.98046875 C151.67254137 149.2171785 145.40729007 180.15568519 136 210 C135.66967773 211.05429199 135.33935547 212.10858398 134.99902344 213.19482422 C133.0284135 219.47267906 131.03003508 225.74111371 129 232 C128.34 232 127.68 232 127 232 C126.97421875 230.69289063 126.9484375 229.38578125 126.921875 228.0390625 C126.44198329 211.05729436 123.92936866 195.62664075 117 180 C116.57074219 179.01902344 116.14148438 178.03804687 115.69921875 177.02734375 C102.67427954 149.17965682 78.64963561 130.86868792 52 117 C52.02320313 117.82242188 52.04640625 118.64484375 52.0703125 119.4921875 C52.32724381 135.38522411 48.48513414 148.69269179 37.578125 160.64453125 C36 162 36 162 33 163 C31.09765625 162.0390625 31.09765625 162.0390625 29.0625 160.625 C26.37093466 158.76839038 24.22474052 157.62041988 21 157 C20.61000809 149.40237976 21.39241413 143.15533979 24 136 C18.80206485 141.19793515 17.34369649 150.01150474 17 157 C17.6290625 157.21914062 18.258125 157.43828125 18.90625 157.6640625 C32.14874549 162.57016776 38.90529256 170.35745711 45.1171875 182.80078125 C46 185 46 185 46 188 C47.32837891 187.566875 47.32837891 187.566875 48.68359375 187.125 C62.80865254 182.89189185 77.22966943 181.58999497 91 188 C95.46697746 190.81183131 99.06250517 193.59375776 102 198 C101.23816406 198.88300781 100.47632813 199.76601563 99.69140625 200.67578125 C98.64811598 201.88774414 97.60517297 203.100006 96.5625 204.3125 C96.01190918 204.9526001 95.46131836 205.5927002 94.89404297 206.25219727 C91.7393784 209.93202772 88.65112839 213.65054916 85.625 217.4375 C65.42449166 242.24899394 41.1615927 264.50465826 8.1875 268.75 C6.79320929 268.85605922 5.3970186 268.9397159 4 269 C3.26136719 269.03996094 2.52273437 269.07992188 1.76171875 269.12109375 C-5.91343521 269.33464141 -13.42948232 268.13053064 -21 267 C-1.19048994 277.51742029 18.24930347 279.91338219 39.95703125 273.4140625 C66.79450256 264.83877581 96.03496011 244.55976811 112.703125 221.66015625 C113.13109375 221.11230469 113.5590625 220.56445312 114 220 C114.66 220 115.32 220 116 220 C117.10239881 238.71015764 110.01527955 253.99058792 98 268 C97.236875 269.010625 96.47375 270.02125 95.6875 271.0625 C74.13171976 294.6234691 41.91576223 305.75629733 10.7421875 307.25 C6.81339917 307.31349557 2.92051294 307.22925895 -1 307 C-2.13139404 306.93619141 -2.13139404 306.93619141 -3.28564453 306.87109375 C-36.70004764 304.7551421 -67.08051158 293.20868692 -93 272 C-93.62277832 271.49146484 -94.24555664 270.98292969 -94.88720703 270.45898438 C-104.63340737 262.43360151 -113.80519392 253.91295871 -121.99609375 244.28125 C-123.66160568 242.38522862 -125.36032126 240.54807072 -127.09765625 238.71875 C-127.92160889 237.84633667 -127.92160889 237.84633667 -128.76220703 236.95629883 C-129.86531286 235.79162355 -130.97424253 234.63243239 -132.08935547 233.47924805 C-136 229.33361579 -136 229.33361579 -136 226 C-135.12601563 226.50789062 -134.25203125 227.01578125 -133.3515625 227.5390625 C-120.85717383 234.60537745 -107.30905731 240.04298861 -93 242 C-92.24332031 242.10957031 -91.48664063 242.21914063 -90.70703125 242.33203125 C-53.33088877 246.90496875 -18.23290119 232.35021812 11 210 C15.06186587 206.99380744 15.06186587 206.99380744 18 203 C17.01 202.67 16.02 202.34 15 202 C7.95052123 193.17212999 4.40663867 183.90322301 4.6953125 172.62890625 C5.14918918 168.71276518 6.37765921 165.58266925 8 162 C10.07198326 165.10797488 10.73550768 167.41602892 11.6875 171 C14.7171325 181.06511241 19.61178664 188.66604298 28 195 C27.49210938 194.40574219 26.98421875 193.81148437 26.4609375 193.19921875 C17.32459084 182.19796238 10.29553679 170.64573698 10.6328125 156.01171875 C11.30134459 150.52833317 13.55642772 145.88714456 16 141 C9.0140748 150.61545885 5.80337743 160.31340706 4 172 C0.37 172 -3.26 172 -7 172 C-6.67 171.113125 -6.34 170.22625 -6 169.3125 C-3.3292964 159.75215523 -4.57638282 150.7484929 -9 142 C-8.7834375 142.57105469 -8.566875 143.14210937 -8.34375 143.73046875 C-5.87656842 150.91499288 -5.68049643 157.45024896 -6 165 C-6.99 165 -7.98 165 -9 165 C-9.93880368 163.59179448 -10.87054288 162.17800386 -11.75390625 160.734375 C-13.9777123 157.63917159 -16.94891962 155.25827996 -20 153 C-20.33 153 -20.66 153 -21 153 C-20.39671875 153.556875 -19.7934375 154.11375 -19.171875 154.6875 C-11.88394713 161.64629564 -7.62107149 167.24839195 -6.9609375 177.48046875 C-7.06092655 183.92976238 -8.83528975 189.38983182 -12 195 C-12.66 195 -13.32 195 -14 195 C-14 200.94 -14 206.88 -14 213 C-26.21 213 -38.42 213 -51 213 C-50.93039063 209.06191406 -50.86078125 205.12382812 -50.7890625 201.06640625 C-50.74221154 197.23383481 -50.70581282 193.4012958 -50.67041016 189.56860352 C-50.64371522 186.91326588 -50.59944759 184.25988936 -50.54736328 181.60473633 C-50.47422297 177.77921118 -50.4404657 173.95500531 -50.4140625 170.12890625 C-50.36761093 168.36118614 -50.36761093 168.36118614 -50.32022095 166.55775452 C-50.31704314 158.70077028 -51.86211659 153.99407594 -57 148 C-57.01138504 148.77191681 -57.02277008 149.54383362 -57.03450012 150.33914185 C-57.38701925 172.56671218 -58.35041479 193.84467731 -74.57421875 210.8046875 C-80.84977171 216.4840124 -86.91629813 219.04405813 -95 221 C-125.17267323 140.22873313 -125.17267323 140.22873313 -108.734375 102.578125 C-104.45868566 93.75710825 -98.69924155 86.11794415 -92 79 C-108.64518847 87.63719401 -119.46722498 100.43610316 -126 118 C-135.74917217 150.07050912 -131.45361101 183.47300222 -121.60083008 214.99902344 C-121.00390079 216.98700898 -120.48736876 218.98263841 -120 221 C-128.26331021 219.91311415 -134.96466101 213.60994608 -140.1875 207.4375 C-156.84783294 185.04164261 -161.75022729 157.17866707 -158.22851562 129.8125 C-155.77891213 113.35549532 -149.94317858 98.53719732 -142 84 C-141.53078125 83.1234375 -141.0615625 82.246875 -140.578125 81.34375 C-131.11792953 64.6492874 -118.13314212 49.68738006 -103 38 C-102.33983887 37.46753662 -101.67967773 36.93507324 -100.99951172 36.38647461 C-76.46609733 16.79251162 -46.52077868 8.43398989 -16.4375 1.5625 C-15.26493652 1.29099121 -14.09237305 1.01948242 -12.88427734 0.73974609 C-11.78680176 0.49691895 -10.68932617 0.2540918 -9.55859375 0.00390625 C-8.58204834 -0.21450928 -7.60550293 -0.4329248 -6.59936523 -0.65795898 C-4.02746042 -0.99638658 -2.43261616 -0.82836168 0 0 Z M-14 112 C-14.31301487 116.08124956 -14.56806451 120.16411495 -14.8125 124.25 C-14.90208984 125.40886719 -14.99167969 126.56773437 -15.08398438 127.76171875 C-15.69975949 134.36601137 -15.69975949 134.36601137 -12.51171875 139.796875 C-11.68285156 140.19390625 -10.85398438 140.5909375 -10 141 C-10 140.34 -10 139.68 -10 139 C-8.12054688 139.06960937 -8.12054688 139.06960937 -6.203125 139.140625 C-4.55210719 139.17814813 -2.90106358 139.21454771 -1.25 139.25 C-0.425 139.28351563 0.4 139.31703125 1.25 139.3515625 C6.21263021 139.47176329 6.21263021 139.47176329 10.49609375 137.1796875 C14.17053315 131.85413637 14.33500393 126.51623595 13.55078125 120.30859375 C12.78775839 117.11039154 11.37587271 115.23188043 9 113 C6.54724859 111.7736243 4.9494219 111.88584686 2.2109375 111.90234375 C0.79941406 111.90717773 0.79941406 111.90717773 -0.640625 111.91210938 C-1.62546875 111.92048828 -2.6103125 111.92886719 -3.625 111.9375 C-5.11386719 111.94426758 -5.11386719 111.94426758 -6.6328125 111.95117188 C-9.0886016 111.96297855 -11.54427104 111.979446 -14 112 Z M-44 164 C-43.67 164.66 -43.34 165.32 -43 166 C-42.34 165.67 -41.68 165.34 -41 165 C-41.99 164.67 -42.98 164.34 -44 164 Z M-34 170 C-33.34 170.66 -32.68 171.32 -32 172 C-29.89179203 171.6814823 -29.89179203 171.6814823 -28 171 C-30.97 170.505 -30.97 170.505 -34 170 Z M-28 172 C-24 173 -24 173 -24 173 Z M-24 173 C-24 173.33 -24 173.66 -24 174 C-20.7 174 -17.4 174 -14 174 C-14 180.6 -14 187.2 -14 194 C-11.8590643 189.71812861 -11.75816032 187.63541261 -11.8125 182.9375 C-11.81894531 181.70902344 -11.82539063 180.48054687 -11.83203125 179.21484375 C-11.85783128 175.98267639 -11.85783128 175.98267639 -13 173 C-16.63 173 -20.26 173 -24 173 Z " fill="#C7DF2E" transform="translate(252,61)"/>
<path d="M0 0 C-0.92039063 0.58265625 -1.84078125 1.1653125 -2.7890625 1.765625 C-33.0252333 21.21438049 -51.25632755 46.73974954 -59 82 C-61.39943277 93.85371951 -61.59724467 105.94681014 -62 118 C-62.66 118 -63.32 118 -64 118 C-63.73766267 123.50908401 -63.02191435 128.11128526 -61.13916016 133.31079102 C-54.10304106 153.38356085 -55.9619885 178.13929351 -64.6875 197.4375 C-69.85533094 206.87947683 -77.02608844 214.65202088 -87 219 C-89.65321213 219.72690633 -92.32565793 220.35291309 -95 221 C-125.17267323 140.22873313 -125.17267323 140.22873313 -108.734375 102.578125 C-104.45868566 93.75710825 -98.69924155 86.11794415 -92 79 C-108.64518847 87.63719401 -119.46722498 100.43610316 -126 118 C-135.74917217 150.07050912 -131.45361101 183.47300222 -121.60083008 214.99902344 C-121.00390079 216.98700898 -120.48736876 218.98263841 -120 221 C-128.26331021 219.91311415 -134.96466101 213.60994608 -140.1875 207.4375 C-156.84783294 185.04164261 -161.75022729 157.17866707 -158.22851562 129.8125 C-155.77891213 113.35549532 -149.94317858 98.53719732 -142 84 C-141.53078125 83.1234375 -141.0615625 82.246875 -140.578125 81.34375 C-131.11792953 64.6492874 -118.13314212 49.68738006 -103 38 C-102.33983887 37.46753662 -101.67967773 36.93507324 -100.99951172 36.38647461 C-76.46609733 16.79251162 -46.52077868 8.43398989 -16.4375 1.5625 C-15.26493652 1.29099121 -14.09237305 1.01948242 -12.88427734 0.73974609 C-11.78680176 0.49691895 -10.68932617 0.2540918 -9.55859375 0.00390625 C-8.58204834 -0.21450928 -7.60550293 -0.4329248 -6.59936523 -0.65795898 C-4.02746042 -0.99638658 -2.43261616 -0.82836168 0 0 Z " fill="#C7DF2E" transform="translate(252,61)"/>
<path d="M0 0 C28.97699528 21.29228114 47.97157635 53.89692855 55 89 C55.21140625 89.98355469 55.4228125 90.96710938 55.640625 91.98046875 C61.67254137 123.2171785 55.40729007 154.15568519 46 184 C45.66967773 185.05429199 45.33935547 186.10858398 44.99902344 187.19482422 C43.0284135 193.47267906 41.03003508 199.74111371 39 206 C38.34 206 37.68 206 37 206 C36.97421875 204.69289063 36.9484375 203.38578125 36.921875 202.0390625 C36.44198329 185.05729436 33.92936866 169.62664075 27 154 C26.57074219 153.01902344 26.14148438 152.03804687 25.69921875 151.02734375 C13.66181234 125.29102977 -8.57204869 105.60026722 -34.0625 93.6875 C-40.13166356 90.52066042 -41.86217866 87.37531093 -43.97265625 80.99609375 C-47.18212695 71.63615449 -54.33164714 63.67727891 -63.0625 59.1875 C-64.68858936 58.41530522 -66.33599662 57.68669073 -68 57 C-69.26650391 56.43925781 -69.26650391 56.43925781 -70.55859375 55.8671875 C-73.80673346 55.04870054 -76.29968662 54.89394307 -79.625 54.90234375 C-80.66140625 54.90427734 -81.6978125 54.90621094 -82.765625 54.90820312 C-84.92229598 54.92773819 -87.07889203 54.97463578 -89.234375 55.04882812 C-96.94349628 54.9960916 -96.94349628 54.9960916 -100.00244141 52.11206055 C-101.56946505 49.8050668 -102.82202465 47.52519694 -104 45 C-104.48210937 44.10152344 -104.96421875 43.20304687 -105.4609375 42.27734375 C-109.03247753 33.13481179 -109.92942749 22.13077441 -106 13 C-96.54086243 14.38804738 -87.13760444 16.00413639 -77.75 17.8125 C-77.07157043 17.94316864 -76.39314087 18.07383728 -75.69415283 18.20846558 C-65.2647975 20.23256874 -55.05858434 22.5462163 -45 26 C-43.87464844 26.37640625 -42.74929688 26.7528125 -41.58984375 27.140625 C-19.01965411 35.21101462 -0.44125424 50.22800827 10 72 C11.86569149 76.25926393 13.48170084 80.60569186 15 85 C16.45715 65.89514449 8.49879007 48.81659254 -3.65576172 34.51660156 C-11.24205397 25.95756642 -20.22442055 19.74121333 -30 14 C-30.5770166 13.65727051 -31.1540332 13.31454102 -31.74853516 12.96142578 C-51.0374161 1.65228396 -72.31233578 -4.26339373 -94 -9 C-72.10301358 -35.27638371 -22.13820743 -15.72733865 0 0 Z " fill="#C6DE2E" transform="translate(342,87)"/>
<path d="M0 0 C14.33479824 -0.04479624 28.66588084 -0.07005319 43 0 C43.72602417 0.00281982 44.45204834 0.00563965 45.20007324 0.00854492 C61.84436936 0.08438249 75.30749454 0.36280208 87.8515625 12.68359375 C97.93408426 23.5543854 103.47917567 35.92146859 102.9375 50.875 C101.85945243 62.4201374 96.64529866 74.46422489 87.625 82.0625 C86.75875 82.701875 85.8925 83.34125 85 84 C84.39671875 83.65066406 83.7934375 83.30132812 83.171875 82.94140625 C82.37265625 82.48636719 81.5734375 82.03132813 80.75 81.5625 C79.96109375 81.11003906 79.1721875 80.65757812 78.359375 80.19140625 C76.21166532 79.10688398 74.34794939 78.46851284 72 78 C71.61000809 70.40237976 72.39241413 64.15533979 75 57 C66.42426236 60.85033118 62.02126711 67.81909467 58.6875 76.4375 C56.87645682 81.87840225 55.88202547 87.34033659 55 93 C51.37 93 47.74 93 44 93 C44.33 92.113125 44.66 91.22625 45 90.3125 C47.6707036 80.75215523 46.42361718 71.7484929 42 63 C42.2165625 63.57105469 42.433125 64.14210938 42.65625 64.73046875 C45.12343158 71.91499288 45.31950357 78.45024896 45 86 C44.01 86 43.02 86 42 86 C41.06119632 84.59179448 40.12945712 83.17800386 39.24609375 81.734375 C37.0222877 78.63917159 34.05108038 76.25827996 31 74 C30.67 74 30.34 74 30 74 C30.60328125 74.556875 31.2065625 75.11375 31.828125 75.6875 C39.11605287 82.64629564 43.37892851 88.24839195 44.0390625 98.48046875 C43.93907345 104.92976238 42.16471025 110.38983182 39 116 C38.34 116 37.68 116 37 116 C37 121.94 37 127.88 37 134 C24.79 134 12.58 134 0 134 C0.08121094 130.08511719 0.16242188 126.17023438 0.24609375 122.13671875 C0.30078789 118.31734176 0.34323296 114.49800949 0.38452148 110.6784668 C0.41958173 108.03731549 0.46724453 105.39629866 0.52807617 102.75561523 C0.61362337 98.94481115 0.65283605 95.13581257 0.68359375 91.32421875 C0.71972275 90.15606125 0.75585175 88.98790375 0.79307556 87.78434753 C0.79668216 80.14211065 -0.76297727 75.58523739 -5.30128479 69.41351318 C-7.88291686 65.74556285 -9.10458565 61.82536434 -10.375 57.5625 C-10.62121094 56.78712891 -10.86742187 56.01175781 -11.12109375 55.21289062 C-11.77107608 53.14750962 -12.40392062 51.08154286 -13 49 C-13.18900879 48.4030835 -13.37801758 47.80616699 -13.57275391 47.19116211 C-14 45 -14 45 -14 38 C-9.38 39.65 -4.76 41.3 0 43 C0 28.81 0 14.62 0 0 Z M37 33 C36.68698513 37.08124956 36.43193549 41.16411495 36.1875 45.25 C36.09791016 46.40886719 36.00832031 47.56773437 35.91601562 48.76171875 C35.30024051 55.36601137 35.30024051 55.36601137 38.48828125 60.796875 C39.31714844 61.19390625 40.14601563 61.5909375 41 62 C41 61.34 41 60.68 41 60 C42.87945312 60.06960937 42.87945312 60.06960937 44.796875 60.140625 C46.44789281 60.17814813 48.09893642 60.21454771 49.75 60.25 C50.575 60.28351563 51.4 60.31703125 52.25 60.3515625 C57.21263021 60.47176329 57.21263021 60.47176329 61.49609375 58.1796875 C65.17053315 52.85413637 65.33500393 47.51623595 64.55078125 41.30859375 C63.78775839 38.11039154 62.37587271 36.23188043 60 34 C57.54724859 32.7736243 55.9494219 32.88584686 53.2109375 32.90234375 C51.79941406 32.90717773 51.79941406 32.90717773 50.359375 32.91210938 C49.37453125 32.92048828 48.3896875 32.92886719 47.375 32.9375 C45.88613281 32.94426758 45.88613281 32.94426758 44.3671875 32.95117188 C41.9113984 32.96297855 39.45572896 32.979446 37 33 Z M7 85 C7.33 85.66 7.66 86.32 8 87 C8.66 86.67 9.32 86.34 10 86 C9.01 85.67 8.02 85.34 7 85 Z M17 91 C17.66 91.66 18.32 92.32 19 93 C21.10820797 92.6814823 21.10820797 92.6814823 23 92 C20.03 91.505 20.03 91.505 17 91 Z M23 93 C27 94 27 94 27 94 Z M27 94 C27 94.33 27 94.66 27 95 C30.3 95 33.6 95 37 95 C37 101.6 37 108.2 37 115 C39.1409357 110.71812861 39.24183968 108.63541261 39.1875 103.9375 C39.18105469 102.70902344 39.17460937 101.48054688 39.16796875 100.21484375 C39.14216872 96.98267639 39.14216872 96.98267639 38 94 C34.37 94 30.74 94 27 94 Z " fill="#29A667" transform="translate(201,140)"/>
<path d="M0 0 C0.7528125 0.29132813 1.505625 0.58265625 2.28125 0.8828125 C8.42948347 3.25555309 14.58336299 5.61299968 20.75 7.9375 C21.7407251 8.31165039 21.7407251 8.31165039 22.75146484 8.69335938 C26.34597617 10.04054742 29.95198507 11.33707961 33.5859375 12.57421875 C34.34422852 12.83404541 35.10251953 13.09387207 35.88378906 13.36157227 C37.33366059 13.85544463 38.78601563 14.34211023 40.24121094 14.82006836 C46.76385311 17.04455783 52.18440754 20.07925308 56 26 C59.48820105 33.14108111 59.32581939 40.19240211 59 48 C58.01 48 57.02 48 56 48 C55.06119632 46.59179448 54.12945712 45.17800386 53.24609375 43.734375 C51.0222877 40.63917159 48.05108038 38.25827996 45 36 C44.67 36 44.34 36 44 36 C44.60328125 36.556875 45.2065625 37.11375 45.828125 37.6875 C53.11605287 44.64629564 57.37892851 50.24839195 58.0390625 60.48046875 C57.93907345 66.92976238 56.16471025 72.38983182 53 78 C52.34 78 51.68 78 51 78 C51 83.94 51 89.88 51 96 C38.79 96 26.58 96 14 96 C14.08121094 92.08511719 14.16242188 88.17023438 14.24609375 84.13671875 C14.30078789 80.31734176 14.34323296 76.49800949 14.38452148 72.6784668 C14.41958173 70.03731549 14.46724453 67.39629866 14.52807617 64.75561523 C14.61362337 60.94481115 14.65283605 57.13581257 14.68359375 53.32421875 C14.71972275 52.15606125 14.75585175 50.98790375 14.79307556 49.78434753 C14.79668216 42.14211065 13.23702273 37.58523739 8.69871521 31.41351318 C6.11708314 27.74556285 4.89541435 23.82536434 3.625 19.5625 C3.37878906 18.78712891 3.13257813 18.01175781 2.87890625 17.21289062 C1.00309378 11.25231713 -0.12161344 6.32389906 0 0 Z M21 47 C21.33 47.66 21.66 48.32 22 49 C22.66 48.67 23.32 48.34 24 48 C23.01 47.67 22.02 47.34 21 47 Z M31 53 C31.66 53.66 32.32 54.32 33 55 C35.10820797 54.6814823 35.10820797 54.6814823 37 54 C34.03 53.505 34.03 53.505 31 53 Z M37 55 C41 56 41 56 41 56 Z M41 56 C41 56.33 41 56.66 41 57 C44.3 57 47.6 57 51 57 C51 63.6 51 70.2 51 77 C53.1409357 72.71812861 53.24183968 70.63541261 53.1875 65.9375 C53.18105469 64.70902344 53.17460937 63.48054688 53.16796875 62.21484375 C53.14216872 58.98267639 53.14216872 58.98267639 52 56 C48.37 56 44.74 56 41 56 Z " fill="#C1FE71" transform="translate(187,178)"/>
<path d="M0 0 C0.66 0.33 1.32 0.66 2 1 C1.65066406 1.68964844 1.30132812 2.37929687 0.94140625 3.08984375 C-2.0275498 9.22120059 -3.66515778 14.19154148 -4 21 C-3.3709375 21.21914062 -2.741875 21.43828125 -2.09375 21.6640625 C10.31156979 26.26000929 17.36694433 33.15427869 23 45.0625 C25.42653305 50.50956117 27.58641299 56.04178646 29.74121094 61.59912109 C31.63315293 66.35880959 33.93899669 70.64698679 36.703125 74.94921875 C37.94653321 76.91545161 38.99646973 78.90300042 40 81 C24.50172125 80.60898838 7.37645196 76.67858777 -5 67 C-13.03626051 58.30994203 -16.29768258 48.48493581 -16.234375 36.8046875 C-15.89671917 32.76407271 -14.66646787 29.68011655 -13 26 C-10.92801674 29.10797488 -10.26449232 31.41602892 -9.3125 35 C-6.2828675 45.06511241 -1.38821336 52.66604298 7 59 C6.49210937 58.40574219 5.98421875 57.81148437 5.4609375 57.19921875 C-3.65336633 46.22450459 -10.77550621 34.61349483 -10.34765625 19.9921875 C-9.38350153 11.69395701 -5.67026708 5.92800649 0 0 Z " fill="#C1FE70" transform="translate(273,197)"/>
<path d="M0 0 C2.31 1.98 4.62 3.96 7 6 C16.70585786 12.90695932 25.17143323 14.81714332 37 16 C37 28.87 37 41.74 37 55 C24.79 55 12.58 55 0 55 C0 36.85 0 18.7 0 0 Z " fill="#28A567" transform="translate(201,219)"/>
<path d="M0 0 C6.97098583 5.48779736 15.86422885 12.6519231 17.25 21.875 C17.29088062 25.69733752 16.53307698 28.04474352 14 31 C10.22858922 34.77141078 7.30176018 35.71081308 2 36 C0.68 35.67 -0.64 35.34 -2 35 C-3.65 40.28 -5.3 45.56 -7 51 C-11.01925977 48.99037012 -14.3127256 47.28177675 -16 43 C-15.53607838 39.14544134 -14.26225715 35.65675355 -13 32 C-12.62837884 30.00675922 -12.27153025 28.00932387 -12 26 C-12.79664063 26.84884766 -12.79664063 26.84884766 -13.609375 27.71484375 C-14.31578125 28.44832031 -15.0221875 29.18179687 -15.75 29.9375 C-16.44609375 30.66839844 -17.1421875 31.39929688 -17.859375 32.15234375 C-20 34 -20 34 -24 35 C-25.98 32.36 -27.96 29.72 -30 27 C-27.33502463 24.47735854 -24.66807718 21.9568574 -22 19.4375 C-21.25621094 18.73302734 -20.51242188 18.02855469 -19.74609375 17.30273438 C-13.37109956 11.28806594 -6.91050398 5.39883123 0 0 Z M-3.1875 17 C-3.785625 17.66 -4.38375 18.32 -5 19 C-3.72431911 21.84574968 -2.58503711 24.18089981 0 26 C3.31818985 25.75794651 3.31818985 25.75794651 6 24 C6.41780879 21.62694422 6.41780879 21.62694422 6 19 C4.29118236 16.62419982 4.29118236 16.62419982 2 15 C-1.12498166 14.6626154 -1.12498166 14.6626154 -3.1875 17 Z " fill="#27A667" transform="translate(118,311)"/>
<path d="M0 0 C1.20171204 3.60513612 0.70719075 4.43559272 -0.65234375 7.88671875 C-1.01650391 8.82451172 -1.38066406 9.76230469 -1.75585938 10.72851562 C-2.14580078 11.70498047 -2.53574219 12.68144531 -2.9375 13.6875 C-3.32357422 14.67556641 -3.70964844 15.66363281 -4.10742188 16.68164062 C-5.06332125 19.12449459 -6.02778293 21.56360441 -7 24 C-6.42967041 24.37809814 -5.85934082 24.75619629 -5.27172852 25.14575195 C-2.69638581 26.8597567 -0.12942933 28.58592352 2.4375 30.3125 C3.33533203 30.90740234 4.23316406 31.50230469 5.15820312 32.11523438 C6.01220703 32.69208984 6.86621094 33.26894531 7.74609375 33.86328125 C8.53685303 34.39219971 9.3276123 34.92111816 10.14233398 35.46606445 C12 37 12 37 13 40 C11.42085985 40.53341184 9.83645613 41.05125763 8.25 41.5625 C7.36828125 41.85253906 6.4865625 42.14257812 5.578125 42.44140625 C2.79966155 43.04340666 1.65205576 42.88063478 -1 42 C-3.31941564 40.36128243 -5.53591818 38.7063324 -7.75 36.9375 C-8.65298828 36.22883789 -8.65298828 36.22883789 -9.57421875 35.50585938 C-11.05409943 34.34309599 -12.52768096 33.1723234 -14 32 C-13.80083984 32.87011719 -13.80083984 32.87011719 -13.59765625 33.7578125 C-12.60295999 38.15770982 -11.68631668 42.53894158 -11 47 C-14.87684087 48.19287411 -17.91621923 49 -22 49 C-23.57004528 43.76828723 -25.13653609 38.53552867 -26.69970703 33.30175781 C-27.23225304 31.52053925 -27.76577822 29.73961314 -28.30029297 27.95898438 C-29.06734215 25.4031025 -29.83089187 22.84619795 -30.59375 20.2890625 C-30.83436157 19.49005524 -31.07497314 18.69104797 -31.32287598 17.86782837 C-33 12.22774341 -33 12.22774341 -33 10 C-31.73160474 9.49384702 -30.46016898 8.99530901 -29.1875 8.5 C-28.47980469 8.2215625 -27.77210938 7.943125 -27.04296875 7.65625 C-25 7 -25 7 -22 7 C-20.68 11.62 -19.36 16.24 -18 21 C-17.62230469 19.73542969 -17.24460937 18.47085937 -16.85546875 17.16796875 C-12.57305615 4.00582813 -12.57305615 4.00582813 -8.0859375 1.13671875 C-5.32427516 0.44095111 -2.84415233 0.0308588 0 0 Z " fill="#27A667" transform="translate(312,364)"/>
<path d="M0 0 C3.6883801 1.73490472 6.82111966 3.45529384 8.609375 7.2421875 C9.12491617 9.9230016 9.38188679 12.51232903 9.609375 15.2421875 C6.84959144 16.62207928 5.53918063 15.89359987 2.609375 15.0546875 C1.7225 14.81363281 0.835625 14.57257813 -0.078125 14.32421875 C-2.8174097 13.04249263 -3.37443935 12.03092425 -4.390625 9.2421875 C-5.710625 9.2421875 -7.030625 9.2421875 -8.390625 9.2421875 C-8.0576235 12.22588098 -7.46548934 13.17349478 -5.2109375 15.2421875 C-3.87675781 16.2321875 -3.87675781 16.2321875 -2.515625 17.2421875 C0.72182282 19.65847509 3.49893743 21.75894102 5.609375 25.2421875 C6.15396886 30.06573308 6.0992603 32.26241689 3.921875 36.6171875 C0.93407502 40.00874423 -0.98285645 40.94698216 -5.4296875 41.4921875 C-11.26440358 41.81299663 -15.58436828 40.569596 -20.390625 37.2421875 C-24.27904177 33.55317672 -24.97620743 30.52601156 -25.390625 25.2421875 C-20.87857923 23.8749009 -17.72338781 24.44368218 -13.390625 26.2421875 C-11.953125 28.8671875 -11.953125 28.8671875 -11.390625 31.2421875 C-9.740625 30.9121875 -8.090625 30.5821875 -6.390625 30.2421875 C-6.74282434 27.47234865 -7.10956832 26.47022538 -9.31640625 24.6796875 C-10.10402344 24.2053125 -10.89164063 23.7309375 -11.703125 23.2421875 C-19.83117726 18.06039266 -19.83117726 18.06039266 -21.390625 12.9921875 C-21.390625 8.34530276 -20.22458722 4.94421023 -17.390625 1.2421875 C-12.39453432 -2.07779534 -5.55835685 -1.76196279 0 0 Z " fill="#27A667" transform="translate(213.390625,370.7578125)"/>
<path d="M0 0 C2.1875 2.8125 2.1875 2.8125 4 6 C2.73459948 9.79620155 1.21781569 10.48678188 -2.0625 12.6875 C-2.98160156 13.31011719 -3.90070313 13.93273437 -4.84765625 14.57421875 C-5.55792969 15.04472656 -6.26820313 15.51523437 -7 16 C-6.34 17.65 -5.68 19.3 -5 21 C-1.37 18.69 2.26 16.38 6 14 C10 18 10 18 11 22 C8.03 23.98 5.06 25.96 2 28 C2.66 29.65 3.32 31.3 4 33 C7.20320069 32.3751604 9.4194845 31.24289152 12.125 29.4375 C15.78470255 27 15.78470255 27 18 27 C22 32.41176471 22 32.41176471 22 35 C18.91195172 37.48013488 15.5119139 39.53882124 12.1875 41.6875 C11.25873047 42.30689453 10.32996094 42.92628906 9.37304688 43.56445312 C8.48037109 44.14517578 7.58769531 44.72589844 6.66796875 45.32421875 C5.84578857 45.86135498 5.0236084 46.39849121 4.17651367 46.9519043 C2 48 2 48 -1 47 C-2.73519474 44.66605009 -4.32428438 42.34808201 -5.88671875 39.90234375 C-6.34859085 39.19348526 -6.81046295 38.48462677 -7.28633118 37.75428772 C-8.76114239 35.4869498 -10.22439327 33.21240426 -11.6875 30.9375 C-12.68479488 29.39990262 -13.68283271 27.86278684 -14.68164062 26.32617188 C-17.12975273 22.55631752 -19.5675219 18.77995915 -22 15 C-19.24308698 12.1653606 -16.59552384 9.51936296 -13.30078125 7.32421875 C-12.64916016 6.88916016 -11.99753906 6.45410156 -11.32617188 6.00585938 C-10.66166016 5.57080078 -9.99714844 5.13574219 -9.3125 4.6875 C-8.63638672 4.23310547 -7.96027344 3.77871094 -7.26367188 3.31054688 C-2.26051457 0 -2.26051457 0 0 0 Z " fill="#27A667" transform="translate(352,341)"/>
<path d="M0 0 C3.24591637 0.64982987 5.6997592 1.83026386 8.546875 3.50390625 C9.39121094 3.99697266 10.23554688 4.49003906 11.10546875 4.99804688 C12.41451172 5.77245117 12.41451172 5.77245117 13.75 6.5625 C14.63816406 7.08263672 15.52632812 7.60277344 16.44140625 8.13867188 C18.6302426 9.42137705 20.81627981 10.70861056 23 12 C21.87548273 14.9719385 20.77706209 17.33440687 19 20 C14.02790438 18.23570801 9.56561939 15.6060834 5 13 C4.34 15.31 3.68 17.62 3 20 C3.9075 20.268125 4.815 20.53625 5.75 20.8125 C8.71471963 21.89576294 10.6169754 22.98359457 13 25 C11.375 30.75 11.375 30.75 8 33 C4.37 31.02 0.74 29.04 -3 27 C-3.66 28.98 -4.32 30.96 -5 33 C-4.28972656 33.39832031 -3.57945312 33.79664063 -2.84765625 34.20703125 C-1.92855469 34.73683594 -1.00945312 35.26664062 -0.0625 35.8125 C0.85402344 36.33457031 1.77054688 36.85664063 2.71484375 37.39453125 C5 39 5 39 6 42 C4.0625 45.1875 4.0625 45.1875 2 48 C-18.49350649 37.01298701 -18.49350649 37.01298701 -20 34 C-18.90264233 31.79666967 -17.7543943 29.73841594 -16.484375 27.63671875 C-16.11274231 27.00772171 -15.74110962 26.37872467 -15.35821533 25.73066711 C-14.16296464 23.71172383 -12.95666022 21.69964073 -11.75 19.6875 C-10.95109023 18.34223172 -10.15290405 16.99653345 -9.35546875 15.65039062 C-6.2547803 10.42291891 -3.12821599 5.21103952 0 0 Z " fill="#27A667" transform="translate(155,347)"/>
<path d="M0 0 C3.6885272 2.06662162 6.66467696 4.36633206 9.75 7.25 C14.31329896 11.43644995 19.05056935 15.28194944 24 19 C27.74020498 17.31847927 29.56134348 15.30960527 32 12 C35.35595828 12.59927826 37.37801226 13.84622436 40 16 C38.4585799 19.56917061 36.30524541 22.08217769 33.6875 24.9375 C32.48867188 26.24654297 32.48867188 26.24654297 31.265625 27.58203125 C28.89367667 30.11347266 26.49255396 32.58785101 24 35 C23.40574219 34.45472656 22.81148438 33.90945313 22.19921875 33.34765625 C16.82850325 28.46139098 11.33929846 23.78539391 5.6953125 19.21875 C1.69501308 15.9257499 -2.16109003 12.47871594 -6 9 C-4.56171454 5.09330571 -3.11429212 2.80286291 0 0 Z " fill="#27A667" transform="translate(373,319)"/>
<path d="M0 0 C3.3 0 6.6 0 10 0 C11.29487016 3.88461047 11.1232604 7.55883956 11.09765625 11.60546875 C11.0962413 12.44467361 11.09482635 13.28387848 11.09336853 14.14851379 C11.08777215 16.82821216 11.07522035 19.5078269 11.0625 22.1875 C11.05748453 24.00455608 11.05292171 25.82161348 11.04882812 27.63867188 C11.03780391 32.09248013 11.02054178 36.54622589 11 41 C7.37 41 3.74 41 0 41 C0 27.47 0 13.94 0 0 Z " fill="#28A667" transform="translate(247,376)"/>
</svg>
